# xmcd CD database file
#
# Track frame offsets:
#	150
#	13427
#	22912
#	36485
#	48150
#	61762
#	71125
#	85070
#	95467
#	109437
#	118720
#	135982
#	150102
#	166115
#	177870
#
# Disc length: 2504 seconds
#
# Revision: 1
# Processed by: cddbd v1.5.2PL0 Copyright (c) Steve Scherf et al.
# Submitted via: CDex 1.70beta2
#
DISCID=b909c60f
DTITLE=Knírači - Dál tou cestou
DYEAR=1900
DGENRE=Country
TTITLE0=New Captown Races
TTITLE1=Dál tou cestou
TTITLE2=Willy Baker
TTITLE3=Barvy
TTITLE4=Někdy se láska točí
TTITLE5=Pár tónů
TTITLE6=Jen prsten zbývá
TTITLE7=Swing Low
TTITLE8=Je ráno, přej si víc
TTITLE9=I walking
TTITLE10=Čas je lhář
TTITLE11=Vrať se milá
TTITLE12=Prší
TTITLE13=Time gone away
TTITLE14=Malá baby
EXTD=
EXTT0=
EXTT1=
EXTT2=
EXTT3=
EXTT4=
EXTT5=
EXTT6=
EXTT7=
EXTT8=
EXTT9=
EXTT10=
EXTT11=
EXTT12=
EXTT13=
EXTT14=
PLAYORDER=
